<svg width="176" height="149" viewBox="0 0 176 149" fill="none" xmlns="http://www.w3.org/2000/svg">
<path d="M124.978 40.0116C123.917 40.0116 122.9 40.4329 122.15 41.1828C121.4 41.9328 120.979 42.9499 120.979 44.0104V68.0035C120.979 69.064 120.558 70.0812 119.808 70.8311C119.058 71.581 118.041 72.0023 116.98 72.0023H60.9965C59.936 72.0023 58.9188 71.581 58.1689 70.8311C57.419 70.0812 56.9977 69.064 56.9977 68.0035V12.0197C56.9977 10.9592 57.419 9.94203 58.1689 9.1921C58.9188 8.44217 59.936 8.02087 60.9965 8.02087H84.9896C86.0501 8.02087 87.0672 7.59956 87.8172 6.84963C88.5671 6.09971 88.9884 5.08259 88.9884 4.02203C88.9884 2.96147 88.5671 1.94435 87.8172 1.19442C87.0672 0.444492 86.0501 0.0231866 84.9896 0.0231866H60.9965C57.8148 0.0231866 54.7635 1.2871 52.5137 3.53689C50.2639 5.78667 49 8.83803 49 12.0197V68.0035C49 71.1852 50.2639 74.2365 52.5137 76.4863C54.7635 78.7361 57.8148 80 60.9965 80H116.98C120.162 80 123.213 78.7361 125.463 76.4863C127.713 74.2365 128.977 71.1852 128.977 68.0035V44.0104C128.977 42.9499 128.556 41.9328 127.806 41.1828C127.056 40.4329 126.039 40.0116 124.978 40.0116ZM64.9954 43.0507V60.0058C64.9954 61.0664 65.4167 62.0835 66.1666 62.8334C66.9165 63.5833 67.9336 64.0046 68.9942 64.0046H85.9493C86.4756 64.0077 86.9973 63.9068 87.4845 63.7078C87.9717 63.5088 88.4148 63.2156 88.7885 62.845L116.46 35.133L127.817 24.0162C128.192 23.6445 128.489 23.2022 128.692 22.7149C128.895 22.2276 129 21.7049 129 21.1771C129 20.6492 128.895 20.1265 128.692 19.6392C128.489 19.1519 128.192 18.7096 127.817 18.3379L110.862 1.18285C110.49 0.808045 110.048 0.510554 109.561 0.307539C109.073 0.104523 108.551 0 108.023 0C107.495 0 106.972 0.104523 106.485 0.307539C105.998 0.510554 105.555 0.808045 105.184 1.18285L93.907 12.4996L66.155 40.2115C65.7844 40.5852 65.4912 41.0283 65.2922 41.5155C65.0932 42.0027 64.9923 42.5244 64.9954 43.0507ZM108.023 9.66039L119.34 20.9771L113.661 26.6555L102.345 15.3387L108.023 9.66039ZM72.993 44.6902L96.7062 20.9771L108.023 32.2938L84.3098 56.007H72.993V44.6902Z" fill="#AD3953"/>
<path d="M3.83523 102.091H10.2273L21.3409 129.227H21.75L32.8636 102.091H39.2557V137H34.2443V111.739H33.9205L23.625 136.949H19.4659L9.17045 111.722H8.84659V137H3.83523V102.091ZM46.5043 137V110.818H51.6009V137H46.5043ZM49.0781 106.778C48.1918 106.778 47.4304 106.483 46.794 105.892C46.169 105.29 45.8565 104.574 45.8565 103.744C45.8565 102.903 46.169 102.187 46.794 101.597C47.4304 100.994 48.1918 100.693 49.0781 100.693C49.9645 100.693 50.7202 100.994 51.3452 101.597C51.9815 102.187 52.2997 102.903 52.2997 103.744C52.2997 104.574 51.9815 105.29 51.3452 105.892C50.7202 106.483 49.9645 106.778 49.0781 106.778Z" fill="#AD3953"/>
<path d="M69.848 106.625V102.091H96.8651V106.625H85.973V137H80.723V106.625H69.848ZM106.483 137.58C104.824 137.58 103.324 137.273 101.983 136.659C100.642 136.034 99.5795 135.131 98.7955 133.949C98.0227 132.767 97.6364 131.318 97.6364 129.602C97.6364 128.125 97.9205 126.909 98.4886 125.955C99.0568 125 99.8239 124.244 100.79 123.688C101.756 123.131 102.835 122.71 104.028 122.426C105.222 122.142 106.438 121.926 107.676 121.778C109.244 121.597 110.517 121.449 111.494 121.335C112.472 121.21 113.182 121.011 113.625 120.739C114.068 120.466 114.29 120.023 114.29 119.409V119.29C114.29 117.801 113.869 116.648 113.028 115.83C112.199 115.011 110.96 114.602 109.312 114.602C107.597 114.602 106.244 114.983 105.256 115.744C104.278 116.494 103.602 117.33 103.227 118.25L98.4375 117.159C99.0057 115.568 99.8352 114.284 100.926 113.307C102.028 112.318 103.295 111.602 104.727 111.159C106.159 110.705 107.665 110.477 109.244 110.477C110.29 110.477 111.398 110.602 112.568 110.852C113.75 111.091 114.852 111.534 115.875 112.182C116.909 112.83 117.756 113.756 118.415 114.96C119.074 116.153 119.403 117.705 119.403 119.614V137H114.426V133.42H114.222C113.892 134.08 113.398 134.727 112.739 135.364C112.08 136 111.233 136.528 110.199 136.949C109.165 137.369 107.926 137.58 106.483 137.58ZM107.591 133.489C109 133.489 110.205 133.21 111.205 132.653C112.216 132.097 112.983 131.369 113.506 130.472C114.04 129.562 114.307 128.591 114.307 127.557V124.182C114.125 124.364 113.773 124.534 113.25 124.693C112.739 124.841 112.153 124.972 111.494 125.085C110.835 125.187 110.193 125.284 109.568 125.375C108.943 125.455 108.42 125.523 108 125.58C107.011 125.705 106.108 125.915 105.29 126.21C104.483 126.506 103.835 126.932 103.347 127.489C102.869 128.034 102.631 128.761 102.631 129.67C102.631 130.932 103.097 131.886 104.028 132.534C104.96 133.17 106.148 133.489 107.591 133.489ZM145.811 117.21L141.192 118.028C140.999 117.437 140.692 116.875 140.271 116.341C139.862 115.807 139.305 115.369 138.601 115.028C137.896 114.687 137.016 114.517 135.959 114.517C134.516 114.517 133.311 114.841 132.345 115.489C131.379 116.125 130.896 116.949 130.896 117.96C130.896 118.835 131.22 119.54 131.868 120.074C132.516 120.608 133.561 121.045 135.004 121.386L139.163 122.341C141.572 122.898 143.368 123.756 144.55 124.915C145.732 126.074 146.322 127.58 146.322 129.432C146.322 131 145.868 132.398 144.959 133.625C144.061 134.841 142.805 135.795 141.192 136.489C139.589 137.182 137.732 137.528 135.618 137.528C132.686 137.528 130.294 136.903 128.442 135.653C126.589 134.392 125.453 132.602 125.033 130.284L129.959 129.534C130.266 130.818 130.896 131.79 131.851 132.449C132.805 133.097 134.05 133.42 135.584 133.42C137.254 133.42 138.589 133.074 139.589 132.381C140.589 131.676 141.089 130.818 141.089 129.807C141.089 128.989 140.783 128.301 140.169 127.744C139.567 127.187 138.641 126.767 137.391 126.483L132.959 125.511C130.516 124.955 128.709 124.068 127.538 122.852C126.379 121.636 125.8 120.097 125.8 118.233C125.8 116.687 126.232 115.335 127.095 114.176C127.959 113.017 129.152 112.114 130.675 111.466C132.197 110.807 133.942 110.477 135.908 110.477C138.737 110.477 140.964 111.091 142.589 112.318C144.214 113.534 145.288 115.165 145.811 117.21ZM156.614 128.119L156.58 121.898H157.466L167.898 110.818H174L162.102 123.432H161.301L156.614 128.119ZM151.926 137V102.091H157.023V137H151.926ZM168.46 137L159.085 124.557L162.597 120.994L174.716 137H168.46Z" fill="#D6D6DD"/>
</svg>
