<svg width="25" height="25" viewBox="0 0 25 25" fill="none" xmlns="http://www.w3.org/2000/svg">
<path d="M11.7252 0.628063C11.6822 0.631971 11.5513 0.64565 11.434 0.655419C10.375 0.758982 9.31004 1.14978 8.39361 1.77115C6.26571 3.2132 5.15193 5.73581 5.52124 8.27992C5.74985 9.84703 6.51191 11.2461 7.7273 12.3345C8.61441 13.1278 9.79268 13.6964 10.9827 13.9016C11.4125 13.9778 11.6021 13.9915 12.1453 13.9915C12.6885 13.9915 12.878 13.9778 13.3079 13.9016C15.6879 13.4893 17.7044 11.76 18.4802 9.46795C19.1699 7.42993 18.8495 5.20823 17.6165 3.45941C16.5066 1.88839 14.8086 0.884037 12.878 0.655419C12.6983 0.633925 11.8659 0.614386 11.7252 0.628063Z" fill="#D6D6DD"/>
<path d="M16.7665 13.5011C15.8325 14.2104 14.6464 14.7243 13.4701 14.9275C12.9875 15.0115 12.7901 15.0272 12.1453 15.0272C11.522 15.0272 11.434 15.0213 10.9494 14.947C9.80439 14.7751 8.6613 14.31 7.69017 13.6261L7.46741 13.4679L7.26029 13.5011C7.14696 13.5206 6.90661 13.5753 6.72294 13.6203C5.14606 14.0189 3.73723 14.8239 2.58046 15.9846C1.16186 17.4071 0.294286 19.2185 0.046128 21.2682C-0.010538 21.7333 -0.0164 22.7161 0.036358 23.0855C0.13992 23.8241 0.313826 24.2364 0.661637 24.5666C0.995771 24.8851 1.48427 25.0238 2.17012 24.9965C2.69575 24.975 3.2116 24.889 4.57354 24.59C6.16996 24.2403 6.90857 24.1133 7.8758 24.0214C8.27637 23.9843 16.7176 23.9843 17.1182 24.0214C18.0854 24.1133 18.824 24.2403 20.4205 24.59C21.7824 24.889 22.2983 24.975 22.8239 24.9965C23.3202 25.016 23.6797 24.9554 24.0061 24.7952C24.3421 24.6311 24.6216 24.2989 24.7681 23.8905C24.9127 23.4938 24.9791 23.0698 24.9967 22.4524C25.0632 20.0489 24.1155 17.6866 22.394 15.9651C21.0125 14.5836 19.252 13.7063 17.3195 13.4366C16.9169 13.3799 16.9267 13.378 16.7665 13.5011Z" fill="#D6D6DD"/>
</svg>
