<svg width="25" height="25" viewBox="0 0 25 25" fill="none" xmlns="http://www.w3.org/2000/svg">
<path d="M16.8367 2.55103H13.7755V7.65307H16.8367V2.55103Z" fill="#D6D6DD"/>
<path d="M20.1092 0H0V25H24.4898V4.38061L20.1092 0ZM5.10204 1.02041H18.3673V9.18367H5.10204V1.02041ZM19.898 23.9796H4.08163V13.2653H19.898V23.9796Z" fill="#D6D6DD"/>
<path d="M6.63266 16.3266H10.2041C10.4862 16.3266 10.7143 16.0985 10.7143 15.8164C10.7143 15.5342 10.4862 15.3062 10.2041 15.3062H6.63266C6.35051 15.3062 6.12245 15.5342 6.12245 15.8164C6.12245 16.0985 6.35051 16.3266 6.63266 16.3266Z" fill="#D6D6DD"/>
<path d="M6.63266 18.3673H11.7347C12.0168 18.3673 12.2449 18.1393 12.2449 17.8571C12.2449 17.575 12.0168 17.3469 11.7347 17.3469H6.63266C6.35051 17.3469 6.12245 17.575 6.12245 17.8571C6.12245 18.1393 6.35051 18.3673 6.63266 18.3673Z" fill="#D6D6DD"/>
<path d="M13.2653 18.3674C13.4031 18.3674 13.5306 18.3112 13.6275 18.2194C13.7194 18.1225 13.7755 17.9898 13.7755 17.8572C13.7755 17.7245 13.7194 17.5913 13.6275 17.4949C13.4388 17.3061 13.0969 17.3061 12.9082 17.4949C12.8112 17.5913 12.7551 17.7189 12.7551 17.8572C12.7551 17.9949 12.8107 18.1225 12.9031 18.2194C12.9995 18.3112 13.127 18.3674 13.2653 18.3674Z" fill="#D6D6DD"/>
</svg>
