<svg width="40" height="40" viewBox="0 0 40 40" fill="none" xmlns="http://www.w3.org/2000/svg">
<path d="M37.989 20.0058C37.4587 20.0058 36.9501 20.2164 36.5752 20.5914C36.2002 20.9664 35.9896 21.4749 35.9896 22.0052V34.0017C35.9896 34.532 35.7789 35.0406 35.404 35.4155C35.029 35.7905 34.5204 36.0012 33.9901 36.0012H5.99826C5.46798 36.0012 4.95942 35.7905 4.58446 35.4155C4.20949 35.0406 3.99884 34.532 3.99884 34.0017V6.00985C3.99884 5.47957 4.20949 4.97101 4.58446 4.59605C4.95942 4.22109 5.46798 4.01043 5.99826 4.01043H17.9948C18.5251 4.01043 19.0336 3.79978 19.4086 3.42482C19.7835 3.04985 19.9942 2.54129 19.9942 2.01101C19.9942 1.48073 19.7835 0.972174 19.4086 0.59721C19.0336 0.222246 18.5251 0.0115933 17.9948 0.0115933H5.99826C4.40742 0.0115933 2.88174 0.643551 1.75685 1.76844C0.631958 2.89334 0 4.41902 0 6.00985V34.0017C0 35.5926 0.631958 37.1183 1.75685 38.2431C2.88174 39.368 4.40742 40 5.99826 40H33.9901C35.581 40 37.1067 39.368 38.2316 38.2431C39.3564 37.1183 39.9884 35.5926 39.9884 34.0017V22.0052C39.9884 21.4749 39.7778 20.9664 39.4028 20.5914C39.0278 20.2164 38.5193 20.0058 37.989 20.0058ZM7.99768 21.5254V30.0029C7.99768 30.5332 8.20833 31.0417 8.5833 31.4167C8.95826 31.7917 9.46682 32.0023 9.9971 32.0023H18.4746C18.7378 32.0038 18.9986 31.9534 19.2422 31.8539C19.4858 31.7544 19.7074 31.6078 19.8942 31.4225L33.7302 17.5665L39.4086 12.0081C39.596 11.8222 39.7447 11.6011 39.8462 11.3575C39.9477 11.1138 40 10.8525 40 10.5885C40 10.3246 39.9477 10.0632 39.8462 9.8196C39.7447 9.57595 39.596 9.35481 39.4086 9.16894L30.931 0.591425C30.7452 0.404023 30.524 0.255277 30.2804 0.153769C30.0367 0.0522613 29.7754 0 29.5114 0C29.2475 0 28.9862 0.0522613 28.7425 0.153769C28.4989 0.255277 28.2777 0.404023 28.0919 0.591425L22.4535 6.24978L8.57751 20.1058C8.3922 20.2926 8.2456 20.5142 8.1461 20.7578C8.0466 21.0014 7.99616 21.2622 7.99768 21.5254V21.5254ZM29.5114 4.8302L35.1698 10.4886L32.3306 13.3277L26.6723 7.66937L29.5114 4.8302ZM11.9965 22.3451L23.8531 10.4886L29.5114 16.1469L17.6549 28.0035H11.9965V22.3451Z" fill="#D74424"/>
</svg>
